<?xml version="1.0" encoding="utf-8"?>
<!-- Generator: Adobe Illustrator 19.0.0, SVG Export Plug-In . SVG Version: 6.00 Build 0)  -->
<svg version="1.1" id="Calque_1" xmlns="http://www.w3.org/2000/svg" xmlns:xlink="http://www.w3.org/1999/xlink" x="0px" y="0px"
	 viewBox="0 0 261.5 65.5" style="enable-background:new 0 0 261.5 65.5;" xml:space="preserve">
<style type="text/css">
	.st0{fill:#E54444;}
</style>
<g id="XMLID_1_">
	<path id="XMLID_15_" class="st0" d="M43.5,52c0,0-43.4,1.8-43.4-8.5c0-6.9,15.1-8.3,15.1-8.3l0.2-4.1c0,0-15.4,2.4-15.4,6.7
		c0,4.3,4.6,11.1,43.5,9.7"/>
	<path id="XMLID_14_" class="st0" d="M13.6,30.3l0.2-8.1c0,0,13.2,8.4,18.1,10.2c0,0-12.6,8.2-18.1,10.6l-0.2-8.2"/>
</g>
<path id="XMLID_16_" class="st0" d="M222.8,46.5c0,0,12.1,7.9,17.4,10.2l0.2-7.9c0,0,19.4-1.2,21-7.7c1.5-5.8-16.7-8.6-16.7-8.6
	l-0.2-3.9c0,0,16.9,1.1,17,7.1c0,4.1-6.6,8.1-21.1,8.8l-0.2-7.8C240.2,36.7,227.5,44.8,222.8,46.5z"/>
</svg>
