<?xml version="1.0" encoding="utf-8"?>
<!-- Generator: Adobe Illustrator 19.0.0, SVG Export Plug-In . SVG Version: 6.00 Build 0)  -->
<svg version="1.1" id="Layer_1" xmlns="http://www.w3.org/2000/svg" xmlns:xlink="http://www.w3.org/1999/xlink" x="0px" y="0px"
	 viewBox="0 0 428.2 427.3" style="enable-background:new 0 0 428.2 427.3;" xml:space="preserve">
<style type="text/css">
	.st0{fill:url(#SVGID_1_);}
	.st1{fill:none;stroke:#FFFFFF;stroke-width:35.0651;stroke-miterlimit:10;}
	.st2{fill:none;stroke:#FFFFFF;stroke-width:42.8573;stroke-miterlimit:10;}
	.st3{fill:#FFFFFF;}
</style>
<g>
	<radialGradient id="SVGID_1_" cx="124.4538" cy="426.2654" r="431.6825" gradientUnits="userSpaceOnUse">
		<stop  offset="0" style="stop-color:#FFDA72"/>
		<stop  offset="0.2463" style="stop-color:#F3A94B"/>
		<stop  offset="0.3793" style="stop-color:#EA5132"/>
		<stop  offset="0.5394" style="stop-color:#D73E5F"/>
		<stop  offset="0.6995" style="stop-color:#C5257E"/>
		<stop  offset="0.9122" style="stop-color:#835EA2"/>
		<stop  offset="0.9852" style="stop-color:#6068AE"/>
	</radialGradient>
	<path class="st0" d="M428.2,333.7c0,51.7-41.7,93.6-93.2,93.6H93.2C41.7,427.3,0,385.4,0,333.7V93.6C0,41.9,41.7,0,93.2,0H335
		c51.5,0,93.2,41.9,93.2,93.6V333.7z"/>
	<g>
		<path class="st1" d="M357.9,282.6c0,43.9-35.6,79.6-79.6,79.6H149.9c-43.9,0-79.6-35.6-79.6-79.6v-137c0-43.9,35.6-79.6,79.6-79.6
			h128.4c43.9,0,79.6,35.6,79.6,79.6V282.6z"/>
		<path class="st2" d="M284.7,213.7c-0.9,39-31.6,70.6-70.6,70.6s-70.6-31.6-70.6-70.6s31.6-71.7,70.6-70.6
			C261.6,144.5,285.5,174.8,284.7,213.7z"/>
		<circle class="st3" cx="301" cy="126.4" r="19.8"/>
	</g>
</g>
</svg>
