<?xml version="1.0" encoding="utf-8"?>
<!-- Generator: Adobe Illustrator 19.0.0, SVG Export Plug-In . SVG Version: 6.00 Build 0)  -->
<svg version="1.1" id="Calque_1" xmlns="http://www.w3.org/2000/svg" xmlns:xlink="http://www.w3.org/1999/xlink" x="0px" y="0px"
	 viewBox="0 0 136.7 83.2" style="enable-background:new 0 0 136.7 83.2;" xml:space="preserve">
<style type="text/css">
	.st0{clip-path:url(#SVGID_2_);}
	.st1{fill:#E44544;}
</style>
<g>
	<defs>
		<rect id="SVGID_1_" width="136.7" height="83.2"/>
	</defs>
	<clipPath id="SVGID_2_">
		<use xlink:href="#SVGID_1_"  style="overflow:visible;"/>
	</clipPath>
	<path class="st0" d="M38.1,12.2c-0.3,0.3-0.4,0.6-0.4,1c0,0.4,0.2,0.7,0.4,0.9c0.2,0.2,0.6,0.4,0.9,0.4c0.4,0,0.7-0.1,1-0.4
		c0.3-0.2,0.4-0.6,0.4-0.9c0-0.3-0.1-0.7-0.4-1C39.4,11.8,38.6,11.8,38.1,12.2"/>
	<path class="st0" d="M49.9,12.3c-0.2,0.2-0.4,0.6-0.4,0.9c0,0.3,0.2,0.7,0.4,0.9c0.2,0.2,0.6,0.4,0.9,0.4c0.4,0,0.7-0.2,1-0.4
		c0.3-0.3,0.4-0.6,0.4-0.9c0-0.3-0.1-0.6-0.4-1C51.3,11.8,50.4,11.8,49.9,12.3"/>
	<path class="st0" d="M59.2,20.2c-0.3,0.3-0.4,0.6-0.4,0.9c0,0.4,0.2,0.7,0.4,0.9c0.3,0.2,0.6,0.4,0.9,0.4c0.4,0,0.7-0.1,1-0.4
		c0.3-0.3,0.4-0.6,0.4-0.9c0-0.3-0.1-0.7-0.4-0.9C60.5,19.7,59.7,19.7,59.2,20.2"/>
	<path class="st0" d="M65.8,14.9c-0.3,0.3-0.4,0.6-0.4,1c0,0.4,0.2,0.7,0.4,0.9c0.3,0.2,0.6,0.4,0.9,0.4c0.4,0,0.7-0.1,1-0.4
		c0.3-0.3,0.4-0.6,0.4-0.9c0-0.3-0.1-0.7-0.4-1C67.1,14.4,66.3,14.4,65.8,14.9"/>
	<path class="st0" d="M67.1,3c-0.3,0.3-0.4,0.6-0.4,1c0,0.3,0.2,0.6,0.4,0.9c0.2,0.2,0.6,0.4,0.9,0.4c0.4,0,0.7-0.2,1-0.4
		c0.3-0.3,0.4-0.6,0.4-0.9c0-0.3-0.1-0.7-0.4-0.9C68.5,2.5,67.5,2.6,67.1,3"/>
	<path class="st0" d="M76.3,0.4c-0.2,0.2-0.4,0.6-0.4,0.9c0,0.3,0.2,0.7,0.4,1c0.2,0.2,0.6,0.4,0.9,0.4c0.4,0,0.7-0.2,1-0.4
		c0.3-0.3,0.4-0.6,0.4-0.9c0-0.3-0.1-0.6-0.4-0.9C77.7-0.1,76.8-0.1,76.3,0.4"/>
	<path class="st0" d="M127.8,24.1c-0.2,0.3-0.4,0.6-0.4,0.9c0,0.3,0.2,0.7,0.4,1c0.2,0.2,0.6,0.4,0.9,0.4c0.4,0,0.7-0.2,1-0.4
		c0.3-0.3,0.4-0.6,0.4-0.9c0-0.3-0.1-0.7-0.4-0.9C129.2,23.6,128.3,23.6,127.8,24.1"/>
	<path class="st0" d="M39.4,25.4C39.1,25.7,39,26,39,26.4c0,0.4,0.2,0.7,0.4,0.9c0.3,0.3,0.6,0.4,0.9,0.4c0.4,0,0.7-0.1,1-0.4
		c0.2-0.3,0.4-0.6,0.4-0.9c0-0.4-0.1-0.7-0.4-0.9C40.7,25,39.9,25,39.4,25.4"/>
	<path class="st0" d="M104.1,1.7c-0.3,0.3-0.4,0.6-0.4,0.9c0,0.3,0.2,0.7,0.4,0.9c0.2,0.2,0.6,0.4,0.9,0.4c0.4,0,0.7-0.1,1-0.4
		c0.3-0.3,0.4-0.6,0.4-0.9c0-0.3-0.1-0.7-0.4-0.9C105.4,1.1,104.5,1.2,104.1,1.7"/>
	<path class="st0" d="M134.5,10.9c-0.3,0.3-0.4,0.6-0.4,0.9c0,0.4,0.2,0.7,0.4,0.9c0.3,0.3,0.6,0.4,0.9,0.4c0.4,0,0.7-0.1,1-0.4
		c0.3-0.2,0.4-0.6,0.4-0.9s-0.1-0.7-0.4-0.9C135.8,10.4,134.9,10.4,134.5,10.9"/>
	<path class="st0" d="M110.6,21.5c-0.2,0.3-0.4,0.6-0.4,0.9c0,0.3,0.2,0.7,0.4,0.9c0.2,0.2,0.5,0.4,0.9,0.4c0.4,0,0.7-0.2,1-0.4
		c0.3-0.3,0.4-0.6,0.4-0.9c0-0.3-0.1-0.6-0.4-1C112.1,21,111.2,21,110.6,21.5"/>
	<path class="st0" d="M116,36c-0.3,0.3-0.4,0.6-0.4,1c0,0.4,0.2,0.7,0.4,0.9c0.2,0.2,0.6,0.4,0.9,0.4c0.4,0,0.7-0.2,1-0.4
		c0.3-0.3,0.4-0.6,0.4-0.9c0-0.3-0.1-0.7-0.4-1C117.4,35.5,116.4,35.5,116,36"/>
	<path class="st0" d="M134.5,47.9c-0.3,0.3-0.4,0.6-0.4,0.9c0,0.3,0.2,0.7,0.4,0.9c0.2,0.2,0.6,0.4,0.9,0.4c0.4,0,0.7-0.1,1-0.4
		c0.3-0.2,0.4-0.6,0.4-0.9c0-0.4-0.1-0.7-0.4-0.9C135.8,47.4,134.9,47.4,134.5,47.9"/>
	<path class="st0" d="M89.6,22.8c-0.3,0.3-0.4,0.6-0.4,1c0,0.4,0.2,0.7,0.4,1c0.2,0.2,0.6,0.4,0.9,0.4c0.4,0,0.7-0.1,1-0.4
		c0.3-0.2,0.4-0.6,0.4-0.9c0-0.3-0.1-0.7-0.4-1C90.9,22.3,90,22.3,89.6,22.8"/>
	<path class="st0" d="M6.4,59.2h2.4c5.9,0,8.8-2.3,8.8-6.8c0-4.4-3-6.6-9.1-6.6H6.4V59.2z M6.4,65.2v17.2H0V40h7.2
		c3.6,0,6.2,0.2,8,0.7c1.8,0.5,3.4,1.4,4.8,2.8c2.4,2.4,3.7,5.4,3.7,9c0,3.9-1.3,7-3.9,9.2c-2.6,2.3-6.1,3.4-10.5,3.4H6.4z"/>
	<path class="st0" d="M35.4,55.7V71c0,4.4,1.7,6.6,5.2,6.6c3.5,0,5.2-2.2,5.2-6.6V55.7H52v15.5c0,2.1-0.3,4-0.8,5.5
		c-0.5,1.4-1.4,2.6-2.7,3.8c-2.1,1.8-4.7,2.7-8,2.7c-3.2,0-5.8-0.9-7.9-2.7c-1.3-1.1-2.2-2.4-2.7-3.8c-0.5-1.2-0.8-3.1-0.8-5.5V55.7
		H35.4z"/>
</g>
<rect x="59.8" y="39.7" width="6.2" height="42.7"/>
<polygon class="st1" points="96.1,40 87.6,54.4 79.5,40 72.2,40 83.9,60.2 70.6,82.4 77.8,82.4 87.5,66.2 96.9,82.4 104,82.4 
	91.2,60.2 103.4,40 "/>
</svg>
