<?xml version="1.0" encoding="utf-8"?>
<!-- Generator: Adobe Illustrator 19.0.0, SVG Export Plug-In . SVG Version: 6.00 Build 0)  -->
<svg version="1.1" id="Calque_1" xmlns="http://www.w3.org/2000/svg" xmlns:xlink="http://www.w3.org/1999/xlink" x="0px" y="0px"
	 viewBox="0 0 269.2 199.8" style="enable-background:new 0 0 269.2 199.8;" xml:space="preserve">
<style type="text/css">
	.st0{fill:none;}
	.st1{fill:#E64544;}
</style>
<path d="M1.1,101.9h257v7.7H1.1V101.9z"/>
<path class="st0" d="M22.5,15.3H17v34.5h6.2c15.2,0,22.8-5.8,22.8-17.5C45.9,21,38.1,15.3,22.5,15.3z"/>
<path d="M40,2c-4.7-1.3-11.6-1.9-20.8-1.9H0.5v109.5H17V65.1h7.7c11.4,0,20.4-2.9,27.2-8.8c6.7-5.9,10.1-13.8,10.1-23.8
	c0-9.4-3.1-17.1-9.4-23.3C48.9,5.7,44.7,3.3,40,2z M23.2,49.8H17V15.3h5.5c15.6,0,23.5,5.6,23.5,16.9C45.9,43.9,38.4,49.8,23.2,49.8
	z"/>
<path d="M118.9,79.1c0,11.1-4.5,16.7-13.5,16.7c-9,0-13.5-5.6-13.5-16.7V40.5h-16v38.9c0,6.2,0.7,10.8,2,14c1.4,3.5,3.7,6.7,7,9.5
	c5.4,4.5,12.2,6.8,20.5,6.8c8.3,0,15.2-2.3,20.6-6.8c3.3-2.8,5.6-6,6.9-9.5c1.4-3.9,2.1-8.6,2.1-14V40.5h-16V79.1z"/>
<rect x="155" width="16" height="109.5"/>
<path d="M0,154.7h269v7.7H0V154.7z"/>
<g>
	<path class="st1" d="M15.6,122.4H4.5v6.7h10.8v3.9H4.5v9.3h11.1v3.9H0.3v-27.8h15.3V122.4z"/>
	<path class="st1" d="M24.4,118.6v27.6h-4v-27.6H24.4z"/>
	<path class="st1" d="M39.7,131.7l-3.3,1.8c-0.5-1.1-1.2-1.6-2-1.6c-0.4,0-0.7,0.1-1,0.4c-0.3,0.2-0.4,0.6-0.4,0.9
		c0,0.7,0.8,1.3,2.3,2c2.1,0.9,3.6,1.8,4.3,2.6c0.7,0.8,1.1,1.8,1.1,3.1c0,1.7-0.6,3.1-1.9,4.2c-1.2,1.1-2.7,1.6-4.4,1.6
		c-2.9,0-5-1.4-6.2-4.3l3.5-1.6c0.5,0.8,0.8,1.4,1.1,1.6c0.5,0.5,1.1,0.7,1.8,0.7c1.4,0,2-0.6,2-1.9c0-0.7-0.5-1.4-1.6-2
		c-0.4-0.2-0.8-0.4-1.2-0.6c-0.4-0.2-0.8-0.4-1.2-0.6c-1.2-0.6-2-1.2-2.5-1.7c-0.6-0.7-0.9-1.7-0.9-2.8c0-1.5,0.5-2.8,1.6-3.8
		c1.1-1,2.4-1.5,3.9-1.5C37,128.3,38.6,129.4,39.7,131.7z"/>
	<path class="st1" d="M57.4,128.7h4.1v17.5h-4.1v-1.8c-1.7,1.6-3.5,2.3-5.4,2.3c-2.4,0-4.4-0.9-6-2.6c-1.6-1.8-2.4-4-2.4-6.7
		c0-2.6,0.8-4.8,2.4-6.6c1.6-1.8,3.5-2.6,5.9-2.6c2,0,3.9,0.8,5.5,2.5V128.7z M47.8,137.4c0,1.7,0.4,3,1.3,4.1
		c0.9,1.1,2.1,1.6,3.5,1.6c1.5,0,2.7-0.5,3.6-1.5c0.9-1.1,1.4-2.4,1.4-4.1c0-1.6-0.5-3-1.4-4.1c-0.9-1-2.1-1.6-3.6-1.6
		c-1.4,0-2.6,0.5-3.5,1.6C48.2,134.6,47.8,135.9,47.8,137.4z"/>
	<path d="M78.7,146.3v-27.8h5.8c2.8,0,5,0.3,6.6,0.8c1.7,0.5,3.3,1.5,4.7,2.8c2.9,2.6,4.3,6,4.3,10.3c0,4.3-1.5,7.7-4.5,10.4
		c-1.5,1.3-3.1,2.2-4.7,2.8c-1.5,0.5-3.7,0.8-6.5,0.8H78.7z M82.9,142.3h1.9c1.9,0,3.4-0.2,4.7-0.6c1.2-0.4,2.4-1.1,3.4-2
		c2.1-1.9,3.1-4.3,3.1-7.4c0-3-1-5.5-3.1-7.4c-1.8-1.7-4.5-2.5-8.1-2.5h-1.9V142.3z"/>
	<path d="M120.8,122.4h-11.1v6.7h10.8v3.9h-10.8v9.3h11.1v3.9h-15.3v-27.8h15.3V122.4z"/>
	<path d="M146.8,120v5c-2.4-2-4.9-3-7.5-3c-2.9,0-5.3,1-7.2,3.1c-2,2-2.9,4.5-2.9,7.5c0,2.9,1,5.4,2.9,7.4c2,2,4.4,3,7.2,3
		c1.5,0,2.7-0.2,3.8-0.7c0.6-0.2,1.2-0.6,1.8-1c0.6-0.4,1.3-0.9,2-1.5v5.1c-2.4,1.4-4.9,2-7.6,2c-4,0-7.4-1.4-10.2-4.2
		c-2.8-2.8-4.2-6.2-4.2-10.1c0-3.5,1.2-6.7,3.5-9.5c2.9-3.4,6.6-5.1,11.2-5.1C142,118,144.4,118.6,146.8,120z"/>
	<path d="M169,139.5h-11.9l-3.1,6.7h-4.5l13.7-29.5l13.3,29.5h-4.6L169,139.5z M167.3,135.6l-4.1-9.4l-4.3,9.4H167.3z"/>
	<path d="M183.1,118.5v16.7c0,2.4,0.4,4.1,1.2,5.2c1.2,1.6,2.8,2.4,4.9,2.4c2.1,0,3.8-0.8,4.9-2.4c0.8-1.1,1.2-2.8,1.2-5.2v-16.7
		h4.2v17.9c0,2.9-0.9,5.3-2.7,7.2c-2.1,2.1-4.6,3.2-7.6,3.2c-3,0-5.5-1.1-7.5-3.2c-1.8-1.9-2.7-4.3-2.7-7.2v-17.9H183.1z"/>
	<path d="M206.1,146.3v-27.8h5.8c2.8,0,5,0.3,6.6,0.8c1.7,0.5,3.3,1.5,4.7,2.8c2.9,2.6,4.3,6,4.3,10.3c0,4.3-1.5,7.7-4.5,10.4
		c-1.5,1.3-3.1,2.2-4.7,2.8c-1.5,0.5-3.7,0.8-6.5,0.8H206.1z M210.3,142.3h1.9c1.9,0,3.4-0.2,4.7-0.6c1.2-0.4,2.4-1.1,3.4-2
		c2.1-1.9,3.1-4.3,3.1-7.4c0-3-1-5.5-3.1-7.4c-1.8-1.7-4.5-2.5-8.1-2.5h-1.9V142.3z"/>
	<path d="M237.1,118.5v27.8h-4.2v-27.8H237.1z"/>
	<path d="M243.7,146.3v-29.6l20.2,21.2v-19.3h4.2v29.5l-20.2-21.1v19.4H243.7z"/>
	<path d="M135,183.8l5,6l0.2-0.2c0.5-0.6,1-1.2,1.5-1.7c0.5-0.6,0.9-1.1,1.4-1.7l2.7,2.8c-0.3,0.5-0.8,1-1.3,1.7
		c-0.5,0.6-1.2,1.4-2,2.2l5.1,6.3h-5.2l-2.8-3.4c-2.5,2.6-5.2,3.9-7.9,3.9c-2.5,0-4.5-0.8-6.3-2.4c-1.7-1.6-2.5-3.5-2.5-5.9
		c0-2.8,1.3-5.1,4-6.9l1.8-1.2c0,0,0.1,0,0.1-0.1c0.1,0,0.1-0.1,0.3-0.2c-1.8-2-2.8-3.9-2.8-5.8c0-1.9,0.6-3.4,1.8-4.6
		c1.2-1.2,2.9-1.8,4.8-1.8c1.9,0,3.5,0.6,4.7,1.7c1.2,1.1,1.9,2.6,1.9,4.3c0,1.2-0.3,2.3-1,3.3C138,181.3,136.8,182.5,135,183.8z
		 M131.7,186.2l-0.2,0.2c-1.7,1.2-2.9,2.1-3.5,2.9c-0.6,0.7-0.9,1.5-0.9,2.3c0,1.2,0.5,2.2,1.4,3.2c1,0.9,2,1.4,3.2,1.4
		c1.6,0,3.5-1.1,5.6-3.2L131.7,186.2z M132.6,180.9l0.3-0.3c0.6-0.4,1.1-0.8,1.5-1.2c0.4-0.3,0.7-0.6,0.8-0.8c0.4-0.4,0.5-1,0.5-1.6
		c0-0.7-0.2-1.3-0.7-1.8c-0.5-0.5-1.2-0.7-2-0.7c-0.8,0-1.4,0.2-1.9,0.7c-0.5,0.4-0.8,1-0.8,1.7c0,0.8,0.3,1.6,1,2.4l1,1.3
		C132.4,180.7,132.5,180.7,132.6,180.9z"/>
</g>
<polygon class="st1" points="236,52.3 267.6,0.1 248.7,0.1 226.7,37.2 205.8,0.1 187,0.1 217.1,52.3 205.4,71.7 182.7,109.5 
	201.4,109.5 218.8,80.4 226.4,67.6 250.7,109.5 269.2,109.5 "/>
</svg>
