<?xml version="1.0" encoding="utf-8"?>
<!-- Generator: Adobe Illustrator 19.0.0, SVG Export Plug-In . SVG Version: 6.00 Build 0)  -->
<svg version="1.1" id="Layer_1" xmlns="http://www.w3.org/2000/svg" xmlns:xlink="http://www.w3.org/1999/xlink" x="0px" y="0px"
	 viewBox="0 0 168.4 168.4" style="enable-background:new 0 0 168.4 168.4;" xml:space="preserve">
<style type="text/css">
	.st0{fill:#00ADEE;}
	.st1{fill-rule:evenodd;clip-rule:evenodd;}
	.st2{fill-rule:evenodd;clip-rule:evenodd;fill:#FFFFFF;}
</style>
<g>
	<path class="st0" d="M168.4,134.7c0,18.6-15.1,33.7-33.7,33.7h-101C15.1,168.4,0,153.3,0,134.7v-101C0,15.1,15.1,0,33.7,0h101
		c18.6,0,33.7,15.1,33.7,33.7V134.7z"/>
	<path class="st1" d="M139,58.9c0.9-5.2,0.9-10.5-2.3-14.6c-4.5-5.6-14-5.9-20.5-4.9c-5.3,0.8-23.2,8.7-29.3,27.7
		c10.8-0.8,16.5,0.8,15.4,12.7c-0.4,5-3,10.4-5.8,15.7c-3.2,6-9.3,17.9-17.3,9.3c-7.2-7.7-6.6-22.4-8.3-32.1
		c-0.9-5.5-1.9-12.3-3.7-18c-1.5-4.9-5.1-10.7-9.4-12c-4.7-1.4-10.4,0.8-13.8,2.8c-10.8,6.3-19,15.4-28.3,22.8V69
		c1.9,1.8,2.3,4.7,5.1,5.1c6.4,0.9,12.5-6,16.8,1.2c2.6,4.4,3.4,9.2,5.1,14c2.2,6.3,3.9,13.2,5.8,20.5c3.1,12.3,6.9,30.7,17.5,35.2
		c5.4,2.3,13.6-0.8,17.7-3.2c11.2-6.6,19.9-16.2,27.4-26C128.1,92.6,137.6,66.4,139,58.9z"/>
	<path class="st2" d="M137.5,55.9c0.9-5.2,0.9-10.5-2.3-14.5c-4.5-5.7-14-5.9-20.5-4.9c-5.3,0.8-23.2,8.7-29.3,27.7
		c10.8-0.8,16.5,0.8,15.4,12.7c-0.4,5-3,10.4-5.8,15.7c-3.2,6-9.3,17.9-17.3,9.3c-7.2-7.7-6.6-22.4-8.3-32.1
		c-0.9-5.5-1.9-12.3-3.7-18c-1.5-4.9-5.1-10.7-9.4-12c-4.7-1.4-10.4,0.8-13.8,2.8c-10.8,6.3-19,15.4-28.3,22.8v0.7
		c1.8,1.8,2.3,4.7,5.1,5.1c6.4,0.9,12.5-6,16.8,1.2c2.6,4.4,3.4,9.2,5.1,14c2.2,6.3,3.9,13.2,5.8,20.5C50,119,53.8,137.5,64.4,142
		c5.4,2.3,13.6-0.8,17.7-3.2c11.2-6.6,19.9-16.2,27.4-26C126.6,89.6,136.1,63.3,137.5,55.9z"/>
</g>
</svg>
