<?xml version="1.0" encoding="utf-8"?>
<!-- Generator: Adobe Illustrator 19.0.0, SVG Export Plug-In . SVG Version: 6.00 Build 0)  -->
<svg version="1.1" id="Layer_1" xmlns="http://www.w3.org/2000/svg" xmlns:xlink="http://www.w3.org/1999/xlink" x="0px" y="0px"
	 viewBox="0 0 345.9 345.9" style="enable-background:new 0 0 345.9 345.9;" xml:space="preserve">
<style type="text/css">
	.st0{fill:#3D5A98;}
	.st1{fill:#FFFFFF;}
</style>
<g>
	<path class="st0" d="M326.8,345.9c10.5,0,19.1-8.5,19.1-19.1V19.1c0-10.5-8.5-19.1-19.1-19.1H19.1C8.5,0,0,8.5,0,19.1v307.7
		c0,10.5,8.5,19.1,19.1,19.1H326.8z"/>
	<path class="st1" d="M238.7,345.9V211.9h45l6.7-52.2h-51.7v-33.3c0-15.1,4.2-25.4,25.9-25.4l27.6,0V54.3
		c-4.8-0.6-21.2-2.1-40.3-2.1c-39.9,0-67.1,24.3-67.1,69v38.5h-45.1v52.2h45.1v133.9H238.7z"/>
</g>
</svg>
